<mxfile host="app.diagrams.net" agent="Mozilla/5.0 (Macintosh; Intel Mac OS X 10.15; rv:132.0) Gecko/20100101 Firefox/132.0" version="24.9.1">
  <diagram name="Page-1" id="Mc6m90gNKPbwhF5997jJ">
    <mxGraphModel dx="1272" dy="856" grid="1" gridSize="10" guides="1" tooltips="1" connect="1" arrows="1" fold="1" page="1" pageScale="1" pageWidth="850" pageHeight="1100" math="0" shadow="0">
      <root>
        <mxCell id="0" />
        <mxCell id="1" parent="0" />
        <mxCell id="88gIhvzo4SxNheL0PPgr-1" value="Chemist A" style="shape=umlActor;verticalLabelPosition=bottom;verticalAlign=top;html=1;outlineConnect=0;" vertex="1" parent="1">
          <mxGeometry x="395" y="170" width="30" height="60" as="geometry" />
        </mxCell>
        <mxCell id="88gIhvzo4SxNheL0PPgr-2" value="" style="whiteSpace=wrap;html=1;aspect=fixed;" vertex="1" parent="1">
          <mxGeometry x="547.5" y="80" width="735" height="735" as="geometry" />
        </mxCell>
        <mxCell id="88gIhvzo4SxNheL0PPgr-3" value="&lt;div&gt;BASF SE(largest chemical provider)&lt;br&gt;&lt;/div&gt;&lt;div&gt;&lt;br&gt;&lt;/div&gt;" style="shape=umlActor;verticalLabelPosition=bottom;verticalAlign=top;html=1;outlineConnect=0;" vertex="1" parent="1">
          <mxGeometry x="1470" y="120" width="30" height="60" as="geometry" />
        </mxCell>
        <mxCell id="88gIhvzo4SxNheL0PPgr-16" value="Define chemical data" style="ellipse;whiteSpace=wrap;html=1;" vertex="1" parent="1">
          <mxGeometry x="840" y="160" width="150" height="90" as="geometry" />
        </mxCell>
        <mxCell id="88gIhvzo4SxNheL0PPgr-18" value="Simulate Mixing Process" style="ellipse;whiteSpace=wrap;html=1;" vertex="1" parent="1">
          <mxGeometry x="840" y="280" width="150" height="90" as="geometry" />
        </mxCell>
      </root>
    </mxGraphModel>
  </diagram>
</mxfile>
